<?xml version="1.0" encoding="UTF-8" standalone="no"?>
<svg xmlns:svg="http://www.w3.org/2000/svg" xmlns="http://www.w3.org/2000/svg" viewBox="0 0 200 200" height="200" width="200" version="1.1">
  <path fill="#bebebe" d="M 2.6039669,105.99949 C 25.379049,126.85091 40.578992,140.12974 60.64952,146.48678 l 10.32839,0.61971 c 13.14076,2.54659 21.41025,4.60606 29.12606,6.61016 C 75.47074,142.43737 51.286117,127.45703 28.838077,98.149918 20.008654,102.65444 14.610213,98.755928 2.6039669,105.99949 Z" />
  <path fill="#bebebe" d="M 35.241679,68.817288 C 46.378881,99.921368 75.2598,137.1038 128.40375,158.26115 l -26.02754,-18.59111 -0.82627,-7.643 C 77.91595,115.75652 70.79857,97.712348 62.30206,78.525975 87.45561,59.788843 102.14292,54.806209 133.77451,53.118136 l 2.27225,-4.957627 19.62394,0 C 124.48193,40.932148 85.506,32.192253 35.241679,68.817288 Z" />
  <path fill="#bebebe" d="m 84.19825,86.168983 c 2.98762,13.620225 10.40186,24.021097 19.41736,33.257417 l -1.44596,-27.680086 c 35.74633,-26.28733 66.62002,-21.83941 95.22774,-3.098517 -8.3228,-11.531106 -18.14636,-17.559399 -28.09322,-23.135593 l 2.68539,-2.478814 C 145.46075,59.805388 118.30985,59.065768 84.19825,86.168983 Z" />
</svg>
